<?xml version="1.0" encoding="UTF-8" standalone="no"?>
<!-- Created with Inkscape (http://www.inkscape.org/) -->

<svg
   xmlns:dc="http://purl.org/dc/elements/1.1/"
   xmlns:cc="http://creativecommons.org/ns#"
   xmlns:rdf="http://www.w3.org/1999/02/22-rdf-syntax-ns#"
   xmlns:svg="http://www.w3.org/2000/svg"
   xmlns="http://www.w3.org/2000/svg"
   xmlns:sodipodi="http://sodipodi.sourceforge.net/DTD/sodipodi-0.dtd"
   xmlns:inkscape="http://www.inkscape.org/namespaces/inkscape"
   width="128mm"
   height="128mm"
   viewBox="0 0 128 128"
   version="1.1"
   id="svg8"
   inkscape:version="0.92.4 (5da689c313, 2019-01-14)"
   sodipodi:docname="logo.svg"
   inkscape:export-filename="C:\Users\reist\Desktop\FPGUI\evelyn\src\img\logo.png"
   inkscape:export-xdpi="96"
   inkscape:export-ydpi="96">
  <defs
     id="defs2" />
  <sodipodi:namedview
     id="base"
     pagecolor="#ffffff"
     bordercolor="#666666"
     borderopacity="1.0"
     inkscape:pageopacity="0.0"
     inkscape:pageshadow="2"
     inkscape:zoom="1.4"
     inkscape:cx="251.69884"
     inkscape:cy="202.2355"
     inkscape:document-units="mm"
     inkscape:current-layer="layer3"
     showgrid="false"
     inkscape:window-width="1920"
     inkscape:window-height="1017"
     inkscape:window-x="-8"
     inkscape:window-y="843"
     inkscape:window-maximized="1" />
  <metadata
     id="metadata5">
    <rdf:RDF>
      <cc:Work
         rdf:about="">
        <dc:format>image/svg+xml</dc:format>
        <dc:type
           rdf:resource="http://purl.org/dc/dcmitype/StillImage" />
        <dc:title></dc:title>
      </cc:Work>
    </rdf:RDF>
  </metadata>
  <g
     inkscape:groupmode="layer"
     id="layer3"
     inkscape:label="Layer 2">
    <path
       transform="translate(0,-169)"
       style="fill:#14779a;fill-opacity:1;stroke:#ffffff;stroke-width:5;stroke-miterlimit:4;stroke-dasharray:none;stroke-opacity:1"
       id="path4587-5-8"
       sodipodi:type="arc"
       sodipodi:cx="63.349243"
       sodipodi:cy="232.99779"
       sodipodi:rx="52.916668"
       sodipodi:ry="52.916668"
       sodipodi:start="5.7595865"
       sodipodi:end="1.5707963"
       d="m 109.17642,206.53945 a 52.916668,52.916668 0 0 1 0,52.91667 52.916668,52.916668 0 0 1 -45.827175,26.45834 l -2e-6,-52.91667 z"
       inkscape:export-xdpi="96"
       inkscape:export-ydpi="96" />
    <path
       transform="translate(0,-169)"
       style="fill:#14779a;fill-opacity:1;stroke:#ffffff;stroke-width:5;stroke-miterlimit:4;stroke-dasharray:none;stroke-opacity:1"
       id="path4587-5-7"
       sodipodi:type="arc"
       sodipodi:cx="63.349243"
       sodipodi:cy="232.99779"
       sodipodi:rx="52.916668"
       sodipodi:ry="52.916668"
       sodipodi:start="3.6651914"
       sodipodi:end="5.7595865"
       d="m 17.522064,206.53945 a 52.916668,52.916668 0 0 1 45.827178,-26.45833 52.916668,52.916668 0 0 1 45.827178,26.45833 l -45.827177,26.45834 z"
       inkscape:export-xdpi="96"
       inkscape:export-ydpi="96" />
    <path
       transform="translate(0,-169)"
       style="fill:#14779a;fill-opacity:1;stroke:#ffffff;stroke-width:5;stroke-miterlimit:4;stroke-dasharray:none;stroke-opacity:1"
       id="path4587-5"
       sodipodi:type="arc"
       sodipodi:cx="63.349243"
       sodipodi:cy="232.99779"
       sodipodi:rx="52.916668"
       sodipodi:ry="52.916668"
       sodipodi:start="1.5707963"
       sodipodi:end="3.6651914"
       d="m 63.349245,285.91446 a 52.916668,52.916668 0 0 1 -45.82718,-26.45834 52.916668,52.916668 0 0 1 -1e-6,-52.91667 l 45.827179,26.45834 z"
       inkscape:export-xdpi="96"
       inkscape:export-ydpi="96" />
  </g>
  <g
     inkscape:label="Layer 1"
     inkscape:groupmode="layer"
     id="layer1"
     transform="translate(0,-169)">
    <g
       id="g4598"
       transform="matrix(0.04814536,0,0,0.04814536,51.117398,189.32027)"
       style="fill:#ffffff;fill-opacity:1;stroke:none;stroke-width:1.00064445;stroke-miterlimit:4;stroke-dasharray:none;stroke-opacity:1"
       inkscape:export-xdpi="96"
       inkscape:export-ydpi="96">
      <path
         id="path4554"
         d="m 102.40234,85.339844 h 8.53516 c 4.71094,0 8.53125,-3.820313 8.53125,-8.53125 0,-4.714844 -3.82031,-8.535156 -8.53125,-8.535156 h -8.53516 c -4.710934,0 -8.531246,3.820312 -8.531246,8.535156 0,4.710937 3.820312,8.53125 8.531246,8.53125 z m 0,0"
         inkscape:connector-curvature="0"
         style="fill:#ffffff;fill-opacity:1;stroke:none;stroke-width:1.00064445;stroke-miterlimit:4;stroke-dasharray:none;stroke-opacity:1" />
      <path
         id="path4556"
         d="m 145.07031,85.339844 h 110.9336 c 4.71093,0 8.53125,-3.820313 8.53125,-8.53125 0,-4.714844 -3.82032,-8.535156 -8.53125,-8.535156 h -110.9336 c -4.71093,0 -8.53515,3.820312 -8.53515,8.535156 0,4.710937 3.82422,8.53125 8.53515,8.53125 z m 0,0"
         inkscape:connector-curvature="0"
         style="fill:#ffffff;fill-opacity:1;stroke:none;stroke-width:1.00064445;stroke-miterlimit:4;stroke-dasharray:none;stroke-opacity:1" />
      <path
         id="path4558"
         d="m 434.54687,273.07422 h -18.54296 c -0.0586,0 -0.1211,0 -0.17969,0 -3.88281,0.008 -7.74219,0.58203 -11.46094,1.70703 -0.28906,0.0664 -0.57422,0.14844 -0.85156,0.24609 -4.51953,1.56641 -8.71875,3.94141 -12.39063,7.00782 1.85157,-19.62891 11.57032,-48.12891 48.45313,-69.90625 3.92578,-2.44922 5.18359,-7.58594 2.83203,-11.57422 -2.35547,-3.98828 -7.45703,-5.375 -11.50391,-3.1211 -22.91015,12.44532 -40.78125,32.47266 -50.55078,56.64454 -0.45312,-1.47657 -0.9375,-2.91797 -1.46875,-4.26563 -4.27344,-11.24219 -11.3164,-21.22266 -20.48047,-29.01172 V 76.808594 c 0,-14.140625 -11.46093,-25.601563 -25.59765,-25.601563 H 297.10156 C 293.49609,41.015625 283.87891,34.1875 273.07031,34.140625 H 227.35547 C 220.18359,13.691406 200.875,0 179.20312,0 157.53125,0 138.22266,13.691406 131.05078,34.140625 H 85.335938 c -10.808594,0.04687 -20.425782,6.875 -24.027344,17.066406 H 25.605469 c -14.140625,0 -25.60156275,11.460938 -25.60156275,25.601563 V 486.40625 c 0,14.14062 11.46093775,25.60156 25.60156275,25.60156 H 332.80469 c 3.98828,0.004 7.92187,-0.94531 11.46875,-2.77343 7.79297,1.82812 15.77343,2.76171 23.78125,2.77343 h 31.89843 c 61.78125,0 112.05079,-53.58203 112.05079,-119.46875 v -36.94922 c 0,-45.48046 -34.7461,-82.51562 -77.45704,-82.51562 z m -71.62109,-17.15234 c 2.21875,6.69531 3.81641,13.57812 4.76953,20.5664 -0.85156,-0.36719 -1.61328,-0.85547 -2.47265,-1.13672 -4.19922,-1.50781 -8.62891,-2.27734 -13.08985,-2.27734 -0.0703,0 -0.12109,0 -0.1875,0 h -18.48437 c -2.33985,0 -4.64063,0.16015 -6.92969,0.375 -0.21094,-0.0586 -0.36719,-0.19531 -0.58984,-0.23828 -28.24219,-5.65625 -27.85157,-38.60547 -26.78516,-50.39844 5.44531,-0.62891 10.92187,-0.93359 16.40234,-0.91406 h 0.17969 c 21.35938,0.1914 40.27734,13.84375 47.1875,34.05859 z M 276.22656,460.80859 H 51.203125 V 102.40625 h 10.105469 c 3.601562,10.19141 13.21875,17.02344 24.027344,17.06641 H 273.07031 c 10.8086,-0.043 20.42578,-6.875 24.03125,-17.06641 h 10.10157 v 102.52734 c -22.03907,0.78516 -23.5,6.92188 -24.28516,10.42969 -3.00391,17.55469 -1.47656,48.64063 18.83984,65.05078 -28.38672,14.23047 -46.15625,43.42578 -45.7539,75.17578 v 36.94922 c -0.0703,24.24219 6.96093,47.97656 20.22265,68.26953 z M 341.33594,76.808594 V 210.34375 c -5.46094,-2.29297 -11.19922,-3.86328 -17.06641,-4.67578 V 102.40625 c 0,-9.425781 -7.64062,-17.066406 -17.06641,-17.066406 h -8.53125 V 68.273438 h 34.13282 c 4.71093,0 8.53125,3.820312 8.53125,8.535156 z M 85.335938,51.207031 h 52.054692 c 0.28906,-0.04297 0.57031,-0.101562 0.85156,-0.179687 0.53515,-0.05469 1.05859,-0.160156 1.57031,-0.316406 0.54297,-0.160157 1.06641,-0.378907 1.5625,-0.648438 1.41797,-0.761719 2.58203,-1.925781 3.34375,-3.34375 0.27734,-0.496094 0.5,-1.019531 0.66016,-1.5625 0.1289,-0.257812 0.24218,-0.519531 0.33984,-0.792969 3.24609,-15.886719 17.22656,-27.296875 33.44141,-27.296875 16.21875,0 30.19531,11.410156 33.4414,27.296875 0.10157,0.308594 0.22266,0.609375 0.35938,0.90625 0.13281,0.414063 0.29297,0.824219 0.48047,1.21875 0.28515,0.550781 0.63672,1.070313 1.03906,1.542969 0.24609,0.324219 0.51172,0.625 0.80078,0.90625 0.50781,0.4375 1.0625,0.8125 1.65625,1.117188 1.19922,0.816406 2.63281,1.222656 4.07813,1.152343 h 52.05468 c 4.71485,0 8.53516,3.820313 8.53516,8.535157 V 93.875 c 0,4.710938 -3.82031,8.53125 -8.53516,8.53125 H 85.335938 c -4.710938,0 -8.53125,-3.820312 -8.53125,-8.53125 V 59.742188 c 0,-4.714844 3.820312,-8.535157 8.53125,-8.535157 z M 25.605469,494.94141 c -4.714844,0 -8.535157,-3.82032 -8.535157,-8.53516 V 76.808594 c 0,-4.714844 3.820313,-8.535156 8.535157,-8.535156 h 34.132812 v 17.066406 h -8.535156 c -9.425781,0 -17.066406,7.640625 -17.066406,17.066406 v 358.40234 c 0,9.42579 7.640625,17.06641 17.066406,17.06641 H 289.77734 c 6.25,6.49219 13.24219,12.21875 20.83985,17.06641 z M 494.9375,392.53906 c 0,56.45703 -42.61719,102.40235 -94.98438,102.40235 h -31.89843 c -52.36719,0 -94.98438,-45.92579 -94.98438,-102.40235 v -36.94922 c 0,-36.07031 27.09375,-65.44921 60.39063,-65.44921 h 18.8164 c 2.44141,0.0234 4.85938,0.45703 7.16016,1.28125 9.92187,3.97265 16.32031,13.71093 16.03125,24.39453 v 8.45703 c 0,4.71484 3.82031,8.53515 8.53516,8.53515 4.71093,0 8.53125,-3.82031 8.53125,-8.53515 v -8.48047 c -0.31641,-10.67188 6.03125,-20.41797 15.92578,-24.43359 l 0.41015,-0.11719 c 2.20703,-0.71094 4.50782,-1.08594 6.82422,-1.11719 h 18.84375 c 33.30469,0.0156 60.39844,29.39453 60.39844,65.46484 z m 0,0"
         inkscape:connector-curvature="0"
         style="fill:#ffffff;fill-opacity:1;stroke:none;stroke-width:1.00064445;stroke-miterlimit:4;stroke-dasharray:none;stroke-opacity:1" />
      <path
         id="path4560"
         d="m 321.57422,307.64453 c -1.28906,0.41797 -31.4375,10.9375 -31.4375,50.76172 0,4.71484 3.82031,8.53516 8.53515,8.53516 4.71094,0 8.53125,-3.82032 8.53125,-8.53516 0,-27.08203 18.875,-34.25 19.83985,-34.59375 4.46484,-1.50781 6.86328,-6.35547 5.35156,-10.82031 -1.51172,-4.46485 -6.35547,-6.85938 -10.82031,-5.34766 z m 0,0"
         inkscape:connector-curvature="0"
         style="fill:#ffffff;fill-opacity:1;stroke:none;stroke-width:1.00064445;stroke-miterlimit:4;stroke-dasharray:none;stroke-opacity:1" />
      <path
         id="path4562"
         d="M 110.9375,145.07422 H 85.335938 c -9.425782,0 -17.066407,7.64062 -17.066407,17.0664 v 25.60157 c 0,9.42578 7.640625,17.0664 17.066407,17.0664 H 110.9375 c 9.42578,0 17.06641,-7.64062 17.06641,-17.0664 v -25.60157 c 0,-9.42578 -7.64063,-17.0664 -17.06641,-17.0664 z M 85.335938,187.74219 V 162.14062 H 110.9375 v 25.60157 z m 0,0"
         inkscape:connector-curvature="0"
         style="fill:#ffffff;fill-opacity:1;stroke:none;stroke-width:1.00064445;stroke-miterlimit:4;stroke-dasharray:none;stroke-opacity:1" />
      <path
         id="path4564"
         d="M 110.9375,221.875 H 85.335938 c -9.425782,0 -17.066407,7.64062 -17.066407,17.06641 v 25.59765 c 0,9.42578 7.640625,17.07031 17.066407,17.07031 H 110.9375 c 9.42578,0 17.06641,-7.64453 17.06641,-17.07031 v -25.59765 c 0,-9.42579 -7.64063,-17.06641 -17.06641,-17.06641 z M 85.335938,264.53906 V 238.94141 H 110.9375 v 25.59765 z m 0,0"
         inkscape:connector-curvature="0"
         style="fill:#ffffff;fill-opacity:1;stroke:none;stroke-width:1.00064445;stroke-miterlimit:4;stroke-dasharray:none;stroke-opacity:1" />
      <path
         id="path4566"
         d="M 110.9375,298.67578 H 85.335938 c -9.425782,0 -17.066407,7.64063 -17.066407,17.06641 v 25.59765 c 0,9.42578 7.640625,17.06641 17.066407,17.06641 H 110.9375 c 9.42578,0 17.06641,-7.64063 17.06641,-17.06641 v -25.59765 c 0,-9.42578 -7.64063,-17.06641 -17.06641,-17.06641 z M 85.335938,341.33984 V 315.74219 H 110.9375 v 25.59765 z m 0,0"
         inkscape:connector-curvature="0"
         style="fill:#ffffff;fill-opacity:1;stroke:none;stroke-width:1.00064445;stroke-miterlimit:4;stroke-dasharray:none;stroke-opacity:1" />
      <path
         id="path4568"
         d="M 110.9375,375.47266 H 85.335938 c -9.425782,0 -17.066407,7.64062 -17.066407,17.0664 v 25.60156 c 0,9.42579 7.640625,17.06641 17.066407,17.06641 H 110.9375 c 9.42578,0 17.06641,-7.64062 17.06641,-17.06641 v -25.60156 c 0,-9.42578 -7.64063,-17.0664 -17.06641,-17.0664 z M 85.335938,418.14062 V 392.53906 H 110.9375 v 25.60156 z m 0,0"
         inkscape:connector-curvature="0"
         style="fill:#ffffff;fill-opacity:1;stroke:none;stroke-width:1.00064445;stroke-miterlimit:4;stroke-dasharray:none;stroke-opacity:1" />
      <path
         id="path4570"
         d="m 153.60547,187.74219 h 119.46484 c 4.71485,0 8.53516,-3.82032 8.53516,-8.53516 0,-4.71094 -3.82031,-8.53125 -8.53516,-8.53125 H 153.60547 c -4.71485,0 -8.53516,3.82031 -8.53516,8.53125 0,4.71484 3.82031,8.53516 8.53516,8.53516 z m 0,0"
         inkscape:connector-curvature="0"
         style="fill:#ffffff;fill-opacity:1;stroke:none;stroke-width:1.00064445;stroke-miterlimit:4;stroke-dasharray:none;stroke-opacity:1" />
      <path
         id="path4572"
         d="m 247.46875,247.47266 h -93.86328 c -4.71485,0 -8.53516,3.82031 -8.53516,8.53515 0,4.71094 3.82031,8.53125 8.53516,8.53125 h 93.86328 c 4.71484,0 8.53516,-3.82031 8.53516,-8.53125 0,-4.71484 -3.82032,-8.53515 -8.53516,-8.53515 z m 0,0"
         inkscape:connector-curvature="0"
         style="fill:#ffffff;fill-opacity:1;stroke:none;stroke-width:1.00064445;stroke-miterlimit:4;stroke-dasharray:none;stroke-opacity:1" />
      <path
         id="path4574"
         d="m 230.40234,324.27344 h -76.79687 c -4.71485,0 -8.53516,3.82031 -8.53516,8.53515 0,4.71094 3.82031,8.53125 8.53516,8.53125 h 76.79687 c 4.71485,0 8.53516,-3.82031 8.53516,-8.53125 0,-4.71484 -3.82031,-8.53515 -8.53516,-8.53515 z m 0,0"
         inkscape:connector-curvature="0"
         style="fill:#ffffff;fill-opacity:1;stroke:none;stroke-width:1.00064445;stroke-miterlimit:4;stroke-dasharray:none;stroke-opacity:1" />
      <path
         id="path4576"
         d="m 230.40234,401.07422 h -76.79687 c -4.71485,0 -8.53516,3.82031 -8.53516,8.53515 0,4.71094 3.82031,8.53125 8.53516,8.53125 h 76.79687 c 4.71485,0 8.53516,-3.82031 8.53516,-8.53125 0,-4.71484 -3.82031,-8.53515 -8.53516,-8.53515 z m 0,0"
         inkscape:connector-curvature="0"
         style="fill:#ffffff;fill-opacity:1;stroke:none;stroke-width:1.00064445;stroke-miterlimit:4;stroke-dasharray:none;stroke-opacity:1" />
    </g>
    <g
       id="g4750"
       transform="matrix(0.05357743,0,0,0.05357743,24.866136,231.58204)"
       style="fill:#ffffff;fill-opacity:1"
       inkscape:export-xdpi="96"
       inkscape:export-ydpi="96">
      <g
         id="g4675"
         style="fill:#ffffff;fill-opacity:1">
        <g
           id="g4673"
           style="fill:#ffffff;fill-opacity:1">
          <path
             id="path4671"
             d="m 125.696,125.994 c -5.52,0 -10,4.48 -10,10 0,5.52 4.48,10 10,10 5.52,0 10,-4.48 10,-10 0,-5.52 -4.48,-10 -10,-10 z"
             inkscape:connector-curvature="0"
             style="fill:#ffffff;fill-opacity:1" />
        </g>
      </g>
      <g
         id="g4681"
         style="fill:#ffffff;fill-opacity:1">
        <g
           id="g4679"
           style="fill:#ffffff;fill-opacity:1">
          <path
             id="path4677"
             d="m 215.691,312.984 h -29.998 v -29.998 c 0,-5.522 -4.478,-10 -10,-10 -5.522,0 -9.999,4.478 -9.999,10 v 29.998 h -29.998 c -5.522,0 -10,4.478 -10,9.999 0,5.521 4.478,10 10,10 h 29.998 v 29.998 c 0,5.522 4.478,10 9.999,10 5.521,0 10,-4.478 10,-10 v -29.998 h 29.998 c 5.522,0 10,-4.478 10,-10 0,-5.522 -4.477,-9.999 -10,-9.999 z"
             inkscape:connector-curvature="0"
             style="fill:#ffffff;fill-opacity:1" />
        </g>
      </g>
      <g
         id="g4687"
         style="fill:#ffffff;fill-opacity:1">
        <g
           id="g4685"
           style="fill:#ffffff;fill-opacity:1">
          <path
             id="path4683"
             d="M 485.578,321.984 C 463.473,283.698 414.597,270.595 376.304,292.705 l -40.618,23.45 v -86.836 c 0,-10.735 -3.55,-21.388 -9.999,-29.998 L 275.69,132.66 v -28.386 c 11.638,-4.128 19.999,-15.242 19.999,-28.279 V 29.998 C 295.687,13.457 282.23,0 265.689,0 H 85.698 C 69.157,0 55.699,13.457 55.699,29.998 v 45.998 c 0,13.035 8.361,24.151 19.999,28.279 v 28.386 l -50.001,66.665 c -6.446,8.606 -9.996,19.258 -9.996,29.993 v 193.66 c 0,27.569 22.429,49.997 49.997,49.997 H 226.4 c 22.421,37.583 70.767,50.161 108.664,28.279 L 456.3,431.258 c 37.955,-21.918 51.494,-70.779 29.278,-109.274 z M 75.698,29.998 c 0,-5.514 4.486,-10 9.999,-10 h 179.991 c 5.514,0 10,4.486 10,10 v 45.998 c 0,5.514 -4.486,9.999 -10,9.999 H 85.698 c -5.514,0 -9.999,-4.486 -9.999,-9.999 V 29.998 Z M 41.701,211.319 93.697,141.993 c 1.298,-1.73 2,-3.836 2,-6 v -29.998 h 159.992 v 19.999 h -89.995 c -5.522,0 -10,4.478 -10,10 0,5.522 4.478,10 10,10 h 94.995 l 48.993,65.322 c 3.202,4.275 5.191,9.39 5.792,14.674 H 35.913 c 0.6,-5.285 2.589,-10.4 5.788,-14.671 z m 23.998,241.658 c -16.541,0 -29.998,-13.457 -29.998,-29.998 V 412.88 h 181.675 c -3.171,12.965 -3.15,26.813 0.481,40.098 H 65.699 Z M 225.219,392.98 H 35.7 V 245.987 H 315.686 V 327.7 l -60.619,35.002 c -12.639,7.301 -22.855,17.694 -29.848,30.278 z m 99.847,90.955 c -28.697,16.571 -65.367,6.771 -81.949,-21.946 -16.661,-28.994 -6.564,-65.498 21.952,-81.969 l 54.277,-31.338 59.997,103.915 z M 446.3,413.939 396.663,442.598 336.665,338.681 386.303,310.025 c 28.716,-16.578 65.373,-6.761 81.955,21.957 16.655,28.862 6.527,65.508 -21.958,81.957 z"
             inkscape:connector-curvature="0"
             style="fill:#ffffff;fill-opacity:1" />
        </g>
      </g>
      <g
         id="g4689"
         style="fill:#ffffff;fill-opacity:1" />
      <g
         id="g4691"
         style="fill:#ffffff;fill-opacity:1" />
      <g
         id="g4693"
         style="fill:#ffffff;fill-opacity:1" />
      <g
         id="g4695"
         style="fill:#ffffff;fill-opacity:1" />
      <g
         id="g4697"
         style="fill:#ffffff;fill-opacity:1" />
      <g
         id="g4699"
         style="fill:#ffffff;fill-opacity:1" />
      <g
         id="g4701"
         style="fill:#ffffff;fill-opacity:1" />
      <g
         id="g4703"
         style="fill:#ffffff;fill-opacity:1" />
      <g
         id="g4705"
         style="fill:#ffffff;fill-opacity:1" />
      <g
         id="g4707"
         style="fill:#ffffff;fill-opacity:1" />
      <g
         id="g4709"
         style="fill:#ffffff;fill-opacity:1" />
      <g
         id="g4711"
         style="fill:#ffffff;fill-opacity:1" />
      <g
         id="g4713"
         style="fill:#ffffff;fill-opacity:1" />
      <g
         id="g4715"
         style="fill:#ffffff;fill-opacity:1" />
      <g
         id="g4717"
         style="fill:#ffffff;fill-opacity:1" />
    </g>
    <g
       id="g5047"
       transform="matrix(0.16697509,0,0,0.16697511,71.409101,230.08008)"
       style="fill:#ffffff;fill-opacity:1"
       inkscape:export-xdpi="96"
       inkscape:export-ydpi="96">
      <g
         id="g4991"
         style="fill:#ffffff;fill-opacity:1">
        <path
           id="path4989"
           d="M 119.846,46.609 C 108.314,35.207 89.638,35.311 78.224,46.846 66.825,58.382 66.926,77.058 78.458,88.469 c 0.238,0.228 0.487,0.429 0.837,0.679 0.584,0.536 1.339,0.828 2.119,0.828 0.307,0 0.606,-0.043 0.904,-0.131 1.059,-0.316 1.873,-1.172 2.134,-2.25 2.049,-8.479 6.345,-16.206 12.4,-22.335 6.077,-6.135 13.737,-10.513 22.213,-12.666 1.072,-0.268 1.895,-1.139 2.198,-2.208 0.305,-1.065 -0.012,-2.262 -0.785,-3.06 -0.107,-0.111 -0.521,-0.611 -0.632,-0.717 z M 92.421,60.876 c -5.538,5.586 -9.746,12.339 -12.398,19.765 -6.153,-8.984 -5.285,-21.391 2.652,-29.41 7.925,-8.014 20.28,-9.037 29.353,-2.975 -7.392,2.731 -14.096,7.033 -19.607,12.62 z m 76.419,-0.423 c -9.292,-9.197 -21.531,-14.647 -34.605,-15.457 -1.674,-2.618 -3.592,-5.015 -5.729,-7.127 -7.928,-7.831 -18.535,-12.364 -29.581,-12.042 -11.161,0.064 -21.61,4.454 -29.444,12.364 -16.173,16.367 -16.023,42.843 0.338,59.028 2.125,2.101 4.546,4.001 7.188,5.639 0.131,1.833 0.487,3.635 0.81,5.443 l -30.285,0.085 -0.061,-22.867 c -0.006,-1.714 -1.41,-3.112 -3.118,-3.112 h -0.006 l -25.054,0.061 c -0.828,0 -1.629,0.332 -2.208,0.916 -0.587,0.588 -0.91,1.379 -0.91,2.211 L 16.212,98.71 3.105,98.753 c -1.714,0.006 -3.118,1.4 -3.105,3.124 l 0.1,37.856 c 0,0.822 0.338,1.625 0.911,2.21 0.587,0.579 1.379,0.907 2.208,0.907 v 0 l 13.119,-0.03 0.037,13.122 c 0.015,1.705 1.404,3.111 3.118,3.111 h 0.015 l 25.051,-0.072 c 0.831,0 1.623,-0.329 2.208,-0.908 0.587,-0.578 0.91,-1.376 0.91,-2.21 l -0.061,-22.871 46.232,-0.115 0.061,22.87 c 0,1.711 1.4,3.112 3.118,3.112 v 0 l 25.062,-0.067 c 0.828,0 1.62,-0.341 2.204,-0.92 0.597,-0.584 0.914,-1.375 0.914,-2.203 l -0.007,-3.076 c 1.931,0.207 3.854,0.354 5.779,0.354 14.357,0 28.046,-5.669 38.325,-16.051 C 190.225,115.681 190.03,81.39 168.84,60.453 Z M 6.335,136.604 6.241,104.983 l 9.996,-0.036 0.088,31.633 z m 16.268,16.196 -0.18,-64.097 18.824,-0.049 0.174,64.091 z m 24.98,-26.067 -0.04,-12.104 46.235,-0.129 0.03,12.118 z m 52.535,25.854 -0.177,-64.094 18.822,-0.046 0.176,64.098 z m 24.917,-47.939 10.005,-0.019 0.091,31.634 -9.998,0.018 z m 39.798,27.84 c -10.461,10.57 -24.905,15.6 -39.677,13.853 l -0.013,-3.812 13.104,-0.024 c 0.828,0 1.619,-0.329 2.21,-0.92 0.585,-0.585 0.907,-1.376 0.907,-2.204 l -0.098,-37.868 c -0.006,-1.705 -1.4,-3.112 -3.117,-3.112 h -0.006 l -13.123,0.025 -0.036,-13.107 c 0,-1.714 -1.4,-3.111 -3.117,-3.111 v 0 L 96.811,82.27 c -0.834,0 -1.625,0.329 -2.21,0.917 -0.585,0.584 -0.907,1.379 -0.907,2.208 l 0.061,22.865 -9.715,0.023 C 83.574,105.86 83.224,103.382 83.129,100.897 83.081,99.826 82.481,98.851 81.558,98.322 78.796,96.751 76.315,94.881 74.19,92.777 60.271,79.009 60.146,56.492 73.907,42.569 80.556,35.84 89.447,32.108 98.943,32.05 c 0.079,0 0.128,0 0.207,0 9.42,0 18.273,3.635 24.959,10.239 2.138,2.113 4.031,4.57 5.614,7.295 0.536,0.929 1.522,1.517 2.594,1.553 12.13,0.375 23.535,5.252 32.114,13.731 18.767,18.55 18.944,48.871 0.402,67.62 z"
           inkscape:connector-curvature="0"
           style="fill:#ffffff;fill-opacity:1" />
      </g>
      <g
         id="g4993"
         style="fill:#ffffff;fill-opacity:1" />
      <g
         id="g4995"
         style="fill:#ffffff;fill-opacity:1" />
      <g
         id="g4997"
         style="fill:#ffffff;fill-opacity:1" />
      <g
         id="g4999"
         style="fill:#ffffff;fill-opacity:1" />
      <g
         id="g5001"
         style="fill:#ffffff;fill-opacity:1" />
      <g
         id="g5003"
         style="fill:#ffffff;fill-opacity:1" />
      <g
         id="g5005"
         style="fill:#ffffff;fill-opacity:1" />
      <g
         id="g5007"
         style="fill:#ffffff;fill-opacity:1" />
      <g
         id="g5009"
         style="fill:#ffffff;fill-opacity:1" />
      <g
         id="g5011"
         style="fill:#ffffff;fill-opacity:1" />
      <g
         id="g5013"
         style="fill:#ffffff;fill-opacity:1" />
      <g
         id="g5015"
         style="fill:#ffffff;fill-opacity:1" />
      <g
         id="g5017"
         style="fill:#ffffff;fill-opacity:1" />
      <g
         id="g5019"
         style="fill:#ffffff;fill-opacity:1" />
      <g
         id="g5021"
         style="fill:#ffffff;fill-opacity:1" />
    </g>
  </g>
</svg>
